<svg xmlns="http://www.w3.org/2000/svg" width="88" height="22" viewBox="0 0 88 22">
  <g id="app-icon" transform="translate(-14477 1455)">
    <g id="Group_147" data-name="Group 147" transform="translate(-21)">
      <g id="Group_142" data-name="Group 142" transform="translate(-39.249 31.751)">
        <path id="Path_4238" data-name="Path 4238" d="M.5,10.623v-8.1A2.025,2.025,0,0,1,2.525.5h8.1a2.025,2.025,0,0,1,2.025,2.025v8.1a2.025,2.025,0,0,1-2.025,2.025h-8.1A2.025,2.025,0,0,1,.5,10.623Z" transform="translate(14608.175 -1481.825)" fill="#333"/>
        <path id="Path_4238_-_Outline" data-name="Path 4238 - Outline" d="M10.8,13.5H2.7A2.7,2.7,0,0,1,0,10.8V2.7A2.7,2.7,0,0,1,2.7,0h8.1a2.7,2.7,0,0,1,2.7,2.7v8.1a2.7,2.7,0,0,1-2.7,2.7ZM2.7,1.35A1.35,1.35,0,0,0,1.35,2.7v8.1a1.35,1.35,0,0,0,1.35,1.35h8.1a1.35,1.35,0,0,0,1.35-1.35V2.7A1.35,1.35,0,0,0,10.8,1.35Z" transform="translate(14608 -1482)" fill="#333"/>
        <path id="Path_4239" data-name="Path 4239" d="M-15356.176-5224.91h-4.725v-1.35h4.725Z" transform="translate(29973.268 3747.958)" fill="#fff"/>
      </g>
      <rect id="Rectangle_98" data-name="Rectangle 98" width="22" height="22" transform="translate(14564 -1455)" fill="none"/>
    </g>
    <g id="Group_146" data-name="Group 146" transform="translate(-13)">
      <g id="Group_139" data-name="Group 139" transform="translate(-23.5 46)">
        <rect id="Rectangle_96" data-name="Rectangle 96" width="10" height="8" rx="2" transform="translate(14564 -1498)" fill="#333"/>
        <rect id="Rectangle_94" data-name="Rectangle 94" width="15" height="10" rx="2" transform="translate(14561.5 -1494.424)" fill="#333"/>
        <path id="Rectangle_94_-_Outline" data-name="Rectangle 94 - Outline" d="M2-.5H13A2.5,2.5,0,0,1,15.5,2V8A2.5,2.5,0,0,1,13,10.5H2A2.5,2.5,0,0,1-.5,8V2A2.5,2.5,0,0,1,2-.5Zm11,10A1.5,1.5,0,0,0,14.5,8V2A1.5,1.5,0,0,0,13,.5H2A1.5,1.5,0,0,0,.5,2V8A1.5,1.5,0,0,0,2,9.5Z" transform="translate(14561.5 -1494.424)" fill="#fff"/>
        <rect id="Rectangle_95" data-name="Rectangle 95" width="10" height="8" rx="2" transform="translate(14564 -1489)" fill="#333"/>
        <path id="Rectangle_95_-_Outline" data-name="Rectangle 95 - Outline" d="M2-.5H8A2.5,2.5,0,0,1,10.5,2V6A2.5,2.5,0,0,1,8,8.5H2A2.5,2.5,0,0,1-.5,6V2A2.5,2.5,0,0,1,2-.5Zm6,8A1.5,1.5,0,0,0,9.5,6V2A1.5,1.5,0,0,0,8,.5H2A1.5,1.5,0,0,0,.5,2V6A1.5,1.5,0,0,0,2,7.5Z" transform="translate(14564 -1489)" fill="#fff"/>
        <g id="Group_138" data-name="Group 138" transform="translate(0 1)">
          <path id="Path_4236" data-name="Path 4236" d="M14571.062-1486.379h-3.994v-1h3.994Z" fill="#fff"/>
          <path id="Path_4237" data-name="Path 4237" d="M14571.062-1486.379h-3.994v-1h3.994Z" transform="translate(0 2.455)" fill="#fff"/>
        </g>
      </g>
      <rect id="Rectangle_98-2" data-name="Rectangle 98" width="22" height="22" transform="translate(14534 -1455)" fill="none"/>
    </g>
    <g id="Group_144" data-name="Group 144" transform="translate(-5)">
      <g id="Group_143" data-name="Group 143" transform="translate(-24.5 45)">
        <g id="Group_140" data-name="Group 140" transform="translate(0 0.424)">
          <rect id="Rectangle_93" data-name="Rectangle 93" width="17" height="12" rx="2" transform="translate(14531.5 -1496.424)" fill="#333"/>
          <path id="Path_4235" data-name="Path 4235" d="M14521-1484.152h16.789" transform="translate(10.5 2.576)" fill="#fff"/>
          <path id="Path_4235_-_Outline" data-name="Path 4235 - Outline" d="M14537.789-1483.652H14521v-1h16.789Z" transform="translate(10.5 2.576)" fill="#333"/>
        </g>
      </g>
      <rect id="Rectangle_98-3" data-name="Rectangle 98" width="22" height="22" transform="translate(14504 -1455)" fill="none"/>
    </g>
    <g id="Group_145" data-name="Group 145">
      <g id="Group_141" data-name="Group 141" transform="translate(-23.5 45)">
        <g id="Group_137" data-name="Group 137" transform="translate(-394 -241.5)">
          <path id="Path_4233" data-name="Path 4233" d="M.5,18V3A2.5,2.5,0,0,1,3,.5h7A2.5,2.5,0,0,1,12.5,3V18A2.5,2.5,0,0,1,10,20.5H3A2.5,2.5,0,0,1,.5,18Z" transform="translate(14899 -1258)" fill="#333"/>
          <path id="Path_4234" data-name="Path 4234" d="M-15796.9-5212.85h3.8" transform="translate(30700.336 3972.723)" fill="#fff"/>
          <path id="Path_4234_-_Outline" data-name="Path 4234 - Outline" d="M-15793.1-5212.35h-3.8v-1h3.8Z" transform="translate(30700.336 3972.723)" fill="#fff"/>
        </g>
      </g>
      <rect id="Rectangle_97" data-name="Rectangle 97" width="22" height="22" transform="translate(14477 -1455)" fill="none"/>
    </g>
  </g>
</svg>
