<svg xmlns="http://www.w3.org/2000/svg" width="101" height="21.084" viewBox="0 0 101 21.084">
  <g id="logo-v3-outline" transform="translate(-14801 2187)">
    <g id="Rectangle_90" data-name="Rectangle 90" transform="translate(14801 -2166.787) rotate(-90)" fill="none" stroke="#333" stroke-width="1.5">
      <path d="M0,0H20.213a0,0,0,0,1,0,0V6.894A10.106,10.106,0,0,1,10.106,17h0A10.106,10.106,0,0,1,0,6.894V0A0,0,0,0,1,0,0Z" stroke="none"/>
      <path d="M.75.75H19.463a0,0,0,0,1,0,0V6.894a9.356,9.356,0,0,1-9.356,9.356h0A9.356,9.356,0,0,1,.75,6.894V.75A0,0,0,0,1,.75.75Z" fill="none"/>
    </g>
    <g id="Polygon_2" data-name="Polygon 2" transform="translate(14833.534 -2187)" fill="none">
      <path d="M11.5,0,23,20.213H0Z" stroke="none"/>
      <path d="M 11.5 3.033300399780273 L 2.57921028137207 18.71274375915527 L 20.42078971862793 18.71274375915527 L 11.5 3.033300399780273 M 11.5 3.814697265625e-06 L 23 20.21274375915527 L 0 20.21274375915527 L 11.5 3.814697265625e-06 Z" stroke="none" fill="#333"/>
    </g>
    <g id="Group_135" data-name="Group 135" transform="translate(14876.404 -2188)">
      <g id="Subtraction_5" data-name="Subtraction 5" transform="translate(4.595)" fill="none">
        <path d="M10.5,22.084A10.6,10.6,0,0,1,9.171,22h2.658A10.605,10.605,0,0,1,10.5,22.084ZM20.99,12H.01C0,11.839,0,11.685,0,11.542a10.5,10.5,0,1,1,21,0c0,.152,0,.306-.01.458Z" stroke="none"/>
        <path d="M 19.44042205810547 10.50060081481934 C 18.9249267578125 6.003563404083252 15.11216449737549 2.499900341033936 10.50030040740967 2.499900341033936 C 5.887980461120605 2.499900341033936 2.07483172416687 6.003563404083252 1.559284567832947 10.50060081481934 L 19.44042205810547 10.50060081481934 M 10.50030040740967 22.08419990539551 C 10.05627059936523 22.08419990539551 9.609100341796875 22.05603981018066 9.171199798583984 22.0004997253418 L 11.82937049865723 22.0004997253418 C 11.38600063323975 22.05671119689941 10.93879985809326 22.08419990539551 10.50030040740967 22.08419990539551 Z M 20.9898796081543 12.00060081481934 L 0.009810273535549641 12.00060081481934 C 0.002960273064672947 11.83888053894043 2.731323149873788e-07 11.68477058410645 2.731323149873788e-07 11.54160022735596 C 2.731323149873788e-07 5.728890419006348 4.710410118103027 0.9999003410339355 10.50030040740967 0.9999003410339355 C 16.2896900177002 0.9999003410339355 20.99970054626465 5.728890419006348 20.99970054626465 11.54160022735596 C 20.99970054626465 11.69344997406006 20.99641036987305 11.84755039215088 20.98991966247559 11.99964046478271 L 20.9898796081543 12.00060081481934 Z" stroke="none" fill="#333"/>
      </g>
      <g id="Subtraction_6" data-name="Subtraction 6" transform="translate(20.595 21) rotate(180)" fill="none">
        <path d="M20.984,10.542H.016c-.011-.2-.016-.4-.016-.584a10.5,10.5,0,1,1,21,0c0,.194-.005.39-.016.583Z" stroke="none"/>
        <path d="M 19.45388221740723 9.04170036315918 C 18.99545860290527 4.484667301177979 15.15487003326416 0.9159002900123596 10.50030040740967 0.9159002900123596 C 5.84527063369751 0.9159002900123596 2.004292488098145 4.484667301177979 1.545823454856873 9.04170036315918 L 19.45388221740723 9.04170036315918 M 20.98380088806152 10.54170036315918 L 0.01589027233421803 10.54170036315918 C 0.005010273307561874 10.34105014801025 2.731323149873788e-07 10.144850730896 2.731323149873788e-07 9.957600593566895 C 2.731323149873788e-07 4.144890308380127 4.710410118103027 -0.5840997099876404 10.50030040740967 -0.5840997099876404 C 16.2896900177002 -0.5840997099876404 20.99970054626465 4.144890308380127 20.99970054626465 9.957600593566895 C 20.99970054626465 10.15119075775146 20.99436950683594 10.3474006652832 20.98385047912598 10.54075050354004 L 20.98380088806152 10.54170036315918 Z" stroke="none" fill="#333"/>
      </g>
    </g>
  </g>
</svg>
