<svg xmlns="http://www.w3.org/2000/svg" width="672.805" height="668" viewBox="0 0 672.805 668">
  <path id="Union_97" data-name="Union 97" d="M337.674,668q-14.156,0-28.351-1.243c46.906-13.735,96.735-35.556,148.53-66.871C393.5,617.4,309.57,641.773,226.886,648.414A324.973,324.973,0,0,1,186.953,630.7c42.88,5.023,88.988,1.249,133.275-6.89,124.863-23.324,167.75-75.35,251.707-75.355,5.574,0,11.315.229,17.287.71h0c-1.588,1.933-3.214,3.818-4.838,5.707a301.766,301.766,0,0,0-33.11,11.691C521.544,579.144,448.637,615.176,433.8,623.5c41.933-.931,74.053-12.128,104.448-24.556A326.008,326.008,0,0,1,337.682,668ZM134.24,597.69a327.125,327.125,0,0,1-76.5-86.029l-8.713-14.18C-45.752,343.243.474,139.621,156.737,46.627h0a179.336,179.336,0,0,1,22.827-11.866A332.372,332.372,0,0,1,328.328,0h16.646C514.67,0,654.252,124.165,671.1,283.3c.017.162.034.325.051.487l.007.065.044.421.009.087.041.407.008.075.043.426.006.059q.023.235.046.47v0q1.025,10.5,1.329,21.2c0,.023,0,.045,0,.068,0,.136.008.271.011.407l0,.154c0,.108.006.215.008.323q0,.094,0,.187c0,.1,0,.19.007.285,0,.074,0,.149.005.223s0,.16.005.24,0,.167.005.251,0,.137,0,.2c0,.1,0,.192.006.289,0,.032,0,.064,0,.1q.021,1.084.034,2.169s0,0,0,0h0q.023,1.9.023,3.8,0,1.578-.029,3.147c0,.011,0,.019,0,.03,0,.127-.005.261-.008.388-.007.321-.014.642-.023.963h0c0,.146-.008.286-.012.432A327.61,327.61,0,0,1,624.485,497.59l-8.669,14.183q-6.322,10.346-13.281,20.047c-35.25-9.668-67.122-7.491-100.4.547l.013-.011q-3.67.887-7.363,1.865a103.626,103.626,0,0,0,22.554-48.59l-.282.034-.094.011-.288.034-.106.012-.282.033-.1.011-.291.033-.1.011-.315.035-.061.007q-.585.065-1.172.126l-.041,0-.345.036-.064.007-.326.033-.066.007-.338.033-.048,0-.376.036h-.01q-.593.056-1.188.109l-.046,0-.339.03-.073.006-.319.027-.073.006-.33.027-.059,0q-.592.049-1.186.093l-.023,0-.361.027-.068,0-.323.023-.076.005-.32.022-.072.005-.36.024-.023,0q-.6.04-1.2.076l-.034,0-.361.021-.047,0-.351.02-.049,0-.375.02h-.012q-4.98.267-10.03.268H158.882a103.126,103.126,0,0,0,47.185,69.035,250.1,250.1,0,0,0,76.163,31.219,255.5,255.5,0,0,0,27.348,4.529c-1.533.342-3.069.685-4.616,1.022q-.75.164-1.5.325c-37.534,6.711-72.893,11.615-106.378,11.615C175.371,604.719,154.445,602.657,134.24,597.69Zm57.768-216.123-19.72,32.269c-.174.283-.345.566-.516.85a103.28,103.28,0,0,0-14.163,63.376q-.485-5.022-.485-10.092A103.134,103.134,0,0,1,171.8,414.933c.171-.284.342-.567.515-.851l19.72-32.267a24.594,24.594,0,0,0-1.468,8.378,24.964,24.964,0,0,0,24.9,25.046H494.95q3.812,0,7.56-.264.724-.049,1.448-.111a105.175,105.175,0,0,0,52.3-19.073,103.289,103.289,0,0,0,13.821-11.8q.694-.71,1.375-1.432l.2-.211,0,0c.347-.371.695-.742,1.038-1.12A97.046,97.046,0,0,0,598.309,315.7a236.26,236.26,0,0,0-2.684-35.568C579.22,172.436,489.454,87.392,376.933,73.687A177.925,177.925,0,0,1,397.5,99.012q1.99,2.967,3.877,6.038l165.733,269.7c1.008,1.641.523.782,1.471,2.441l2.809,4.525.239.387-.2.211q-.682.722-1.376,1.431a104.728,104.728,0,0,1-66.123,30.872c-.482.04-.964.077-1.448.111l-21.5-37.863h0L337.909,144.04q-.568-.925-1.153-1.834l22.2,36.138c-9.364-15.254-31.749-15.549-41.95-1.331l.018-.016ZM91.056,414.676a178.637,178.637,0,0,1,18.1-39.837L274.007,105.088q1.965-3.216,4.044-6.319a103.124,103.124,0,0,0-79.408,9.594q-4.028,2.516-7.96,5.178A251.965,251.965,0,0,0,91.764,235.961q-1.413,3.545-2.714,7.124A253.528,253.528,0,0,0,91.056,414.676Z"/>
</svg>
